<svg xmlns="http://www.w3.org/2000/svg" xmlns:xlink="http://www.w3.org/1999/xlink" width="40" zoomAndPan="magnify" viewBox="0 0 30 30.000001" height="40" preserveAspectRatio="xMidYMid meet" version="1.0"><defs><clipPath id="ef8e0247b6"><path d="M 3.386719 3 L 26.613281 3 L 26.613281 26.128906 L 3.386719 26.128906 Z M 3.386719 3 " clip-rule="nonzero"/></clipPath><clipPath id="bb5a5a612c"><path d="M 3.386719 3 L 26 3 L 26 26 L 3.386719 26 Z M 3.386719 3 " clip-rule="nonzero"/></clipPath><clipPath id="76a86218d7"><path d="M 10 2.902344 L 26.613281 2.902344 L 26.613281 19 L 10 19 Z M 10 2.902344 " clip-rule="nonzero"/></clipPath></defs><path fill="#292f33" d="M 5.164062 22.613281 L 23.113281 4.664062 C 23.378906 4.394531 25.085938 6.101562 24.820312 6.367188 L 6.871094 24.316406 C 6.601562 24.585938 4.898438 22.878906 5.164062 22.613281 Z M 5.164062 22.613281 " fill-opacity="1" fill-rule="nonzero"/><path fill="#66757f" d="M 23.464844 4.988281 L 5.503906 22.949219 L 6.105469 23.554688 L 24.066406 5.589844 Z M 23.464844 4.988281 " fill-opacity="1" fill-rule="nonzero"/><g clip-path="url(#ef8e0247b6)"><path fill="#e1e8ed" d="M 26.269531 3.953125 L 25.988281 3.671875 L 25.527344 3.214844 C 25.476562 3.164062 25.417969 3.128906 25.355469 3.097656 C 25.097656 2.964844 24.777344 3 24.5625 3.214844 L 23.128906 4.648438 L 23.464844 4.988281 L 24.832031 6.355469 L 26.269531 4.917969 C 26.535156 4.652344 26.535156 4.21875 26.269531 3.953125 Z M 6.105469 23.554688 L 5.503906 22.949219 L 5.164062 22.613281 L 3.65625 24.121094 C 3.441406 24.335938 3.40625 24.65625 3.539062 24.914062 C 3.570312 24.972656 3.605469 25.035156 3.65625 25.085938 L 4.113281 25.546875 L 4.394531 25.828125 C 4.660156 26.09375 5.09375 26.09375 5.359375 25.828125 L 6.867188 24.316406 Z M 6.105469 23.554688 " fill-opacity="1" fill-rule="nonzero"/></g><g clip-path="url(#bb5a5a612c)"><path fill="#f5f8fa" d="M 24.066406 5.589844 L 25.988281 3.671875 L 25.527344 3.214844 C 25.476562 3.164062 25.417969 3.128906 25.355469 3.097656 L 23.464844 4.988281 Z M 5.503906 22.949219 L 3.539062 24.914062 C 3.570312 24.972656 3.605469 25.035156 3.65625 25.085938 L 4.113281 25.546875 L 6.105469 23.554688 Z M 5.503906 22.949219 " fill-opacity="1" fill-rule="nonzero"/></g><g clip-path="url(#76a86218d7)"><path fill="#ffac33" d="M 22.410156 12.40625 L 23.464844 12.015625 L 23.871094 10.515625 C 23.925781 10.316406 24.105469 10.179688 24.3125 10.179688 C 24.519531 10.179688 24.699219 10.316406 24.753906 10.515625 L 25.160156 12.015625 L 26.214844 12.40625 C 26.394531 12.472656 26.511719 12.644531 26.511719 12.835938 C 26.511719 13.023438 26.394531 13.195312 26.214844 13.261719 L 25.167969 13.648438 L 24.753906 15.300781 C 24.703125 15.5 24.519531 15.644531 24.3125 15.644531 C 24.105469 15.644531 23.921875 15.5 23.871094 15.300781 L 23.457031 13.648438 L 22.410156 13.261719 C 22.230469 13.195312 22.113281 13.023438 22.113281 12.835938 C 22.113281 12.644531 22.230469 12.472656 22.410156 12.40625 M 10.839844 5.832031 L 12.625 5.171875 L 13.285156 3.386719 C 13.394531 3.089844 13.675781 2.894531 13.992188 2.894531 C 14.304688 2.894531 14.585938 3.089844 14.699219 3.386719 L 15.355469 5.171875 L 17.140625 5.832031 C 17.4375 5.941406 17.632812 6.222656 17.632812 6.539062 C 17.632812 6.851562 17.4375 7.132812 17.140625 7.246094 L 15.355469 7.902344 L 14.699219 9.6875 C 14.585938 9.984375 14.304688 10.179688 13.992188 10.179688 C 13.675781 10.179688 13.394531 9.984375 13.285156 9.6875 L 12.625 7.902344 L 10.839844 7.246094 C 10.542969 7.132812 10.347656 6.851562 10.347656 6.539062 C 10.347656 6.222656 10.546875 5.941406 10.839844 5.832031 M 19.152344 16.410156 L 20.097656 16.058594 L 20.449219 15.117188 C 20.507812 14.960938 20.65625 14.855469 20.820312 14.855469 C 20.988281 14.855469 21.136719 14.960938 21.195312 15.117188 L 21.546875 16.058594 L 22.492188 16.410156 C 22.648438 16.46875 22.75 16.617188 22.75 16.785156 C 22.75 16.953125 22.648438 17.101562 22.492188 17.160156 L 21.546875 17.507812 L 21.195312 18.453125 C 21.136719 18.609375 20.988281 18.710938 20.820312 18.710938 C 20.65625 18.710938 20.507812 18.609375 20.449219 18.453125 L 20.097656 17.507812 L 19.152344 17.160156 C 18.996094 17.101562 18.894531 16.949219 18.894531 16.785156 C 18.894531 16.617188 18.996094 16.46875 19.152344 16.410156 " fill-opacity="1" fill-rule="nonzero"/></g></svg>