<svg xmlns="http://www.w3.org/2000/svg" xmlns:xlink="http://www.w3.org/1999/xlink" width="250" zoomAndPan="magnify" viewBox="0 0 187.5 74.999997" height="100" preserveAspectRatio="xMidYMid meet" version="1.0"><defs><g/><clipPath id="417cc14eb5"><path d="M 87.445312 38.511719 L 98.511719 38.511719 L 98.511719 49.597656 L 87.445312 49.597656 Z M 87.445312 38.511719 " clip-rule="nonzero"/></clipPath><clipPath id="68c34bc346"><path d="M 86.421875 44 L 90 44 L 90 49 L 86.421875 49 Z M 86.421875 44 " clip-rule="nonzero"/></clipPath><clipPath id="25107f57e0"><path d="M 94.3125 37.601562 L 99.171875 37.601562 L 99.171875 42.46875 L 94.3125 42.46875 Z M 94.3125 37.601562 " clip-rule="nonzero"/></clipPath></defs><g clip-path="url(#417cc14eb5)"><path fill="#100f0d" d="M 92.96875 38.523438 C 92.828125 43.800781 92.710938 43.917969 87.449219 44.0625 C 92.710938 44.207031 92.828125 44.324219 92.96875 49.597656 C 93.113281 44.324219 93.230469 44.207031 98.488281 44.0625 C 93.230469 43.917969 93.113281 43.800781 92.96875 38.523438 " fill-opacity="1" fill-rule="nonzero"/></g><g clip-path="url(#68c34bc346)"><path fill="#100f0d" d="M 88.015625 44.996094 C 87.972656 46.519531 87.9375 46.550781 86.421875 46.59375 C 87.9375 46.632812 87.972656 46.667969 88.015625 48.191406 C 88.054688 46.667969 88.089844 46.632812 89.605469 46.59375 C 88.089844 46.550781 88.054688 46.519531 88.015625 44.996094 " fill-opacity="1" fill-rule="nonzero"/></g><g clip-path="url(#25107f57e0)"><path fill="#100f0d" d="M 96.753906 42.453125 C 96.816406 40.140625 96.867188 40.089844 99.171875 40.027344 C 96.867188 39.964844 96.816406 39.914062 96.753906 37.601562 C 96.691406 39.914062 96.640625 39.964844 94.335938 40.027344 C 96.640625 40.089844 96.691406 40.140625 96.753906 42.453125 " fill-opacity="1" fill-rule="nonzero"/></g><g fill="#000000" fill-opacity="1"><g transform="translate(7.499999, 47.38103)"><g><path d="M 24.96875 -9.429688 C 24.621094 -9.589844 24.335938 -9.589844 24.144531 -9.175781 C 24.019531 -8.859375 23.859375 -8.511719 23.703125 -8.195312 C 22.878906 -6.519531 22.058594 -4.808594 21.042969 -3.226562 C 20.824219 -2.910156 20.601562 -2.59375 20.285156 -2.375 C 20 -2.152344 19.746094 -2.152344 19.492188 -2.4375 C 19.175781 -2.816406 19.019531 -3.257812 18.925781 -3.734375 C 18.734375 -5.0625 18.542969 -6.390625 18.511719 -7.722656 C 18.480469 -8.703125 18.355469 -9.683594 18.101562 -10.632812 C 17.5625 -12.5 16.042969 -13.070312 14.429688 -12.027344 C 14.144531 -11.835938 13.894531 -11.644531 13.671875 -11.425781 C 13.039062 -10.824219 12.5625 -10.160156 12.121094 -9.460938 C 11.960938 -9.242188 11.898438 -8.957031 11.582031 -8.828125 C 11.519531 -9.714844 11.457031 -10.570312 11.394531 -11.394531 C 11.296875 -12.53125 11.109375 -13.671875 10.664062 -14.714844 C 9.84375 -16.773438 7.910156 -17.4375 5.980469 -16.359375 C 5.0625 -15.855469 4.398438 -15.09375 3.796875 -14.273438 C 3.671875 -14.050781 3.574219 -13.765625 3.226562 -13.542969 C 3.226562 -13.828125 3.226562 -13.957031 3.226562 -14.113281 C 3.292969 -15.125 3.226562 -16.140625 3.164062 -17.152344 C 3.101562 -17.910156 3.101562 -17.945312 2.308594 -17.910156 C 1.867188 -17.878906 1.457031 -17.785156 1.042969 -17.816406 C 0.570312 -17.816406 0.347656 -17.59375 0.285156 -17.152344 C 0.253906 -16.992188 0.222656 -16.867188 0.222656 -16.710938 C -0.441406 -12.5625 -0.695312 -8.417969 -0.441406 -4.207031 C -0.410156 -3.132812 -0.316406 -2.023438 -0.09375 -0.917969 C 0 -0.316406 0.09375 -0.253906 0.726562 -0.222656 C 1.171875 -0.191406 1.613281 -0.191406 2.058594 -0.191406 C 2.691406 -0.222656 2.722656 -0.253906 2.785156 -0.855469 C 2.816406 -1.457031 2.910156 -2.058594 2.941406 -2.625 C 3.070312 -5.949219 4.050781 -9.082031 5.125 -12.183594 C 5.410156 -13.007812 5.792969 -13.796875 6.296875 -14.492188 C 6.488281 -14.777344 6.675781 -15.03125 6.960938 -15.222656 C 7.40625 -15.539062 7.785156 -15.476562 8.070312 -14.96875 C 8.355469 -14.460938 8.511719 -13.859375 8.640625 -13.292969 C 9.082031 -11.328125 9.175781 -9.335938 9.175781 -7.308594 C 9.210938 -5.476562 9.175781 -3.640625 9.175781 -1.773438 C 9.175781 -1.011719 9.210938 -0.980469 10 -0.917969 C 11.519531 -0.824219 11.265625 -0.726562 11.550781 -2.089844 C 11.960938 -4.144531 12.53125 -6.171875 13.386719 -8.132812 C 13.734375 -8.988281 14.210938 -9.714844 14.875 -10.347656 C 15.191406 -10.664062 15.378906 -10.601562 15.507812 -10.191406 C 15.664062 -9.777344 15.761719 -9.335938 15.792969 -8.890625 C 15.949219 -7.722656 16.078125 -6.582031 16.359375 -5.441406 C 16.582031 -4.429688 16.898438 -3.417969 17.40625 -2.5 C 18.261719 -0.949219 20.410156 -0.726562 21.425781 -1.960938 C 21.675781 -2.277344 21.992188 -2.59375 22.214844 -2.941406 C 23.511719 -4.714844 24.304688 -6.742188 25.128906 -8.765625 C 25.222656 -9.019531 25.316406 -9.304688 24.96875 -9.429688 Z M 24.96875 -9.429688 "/></g></g></g><g fill="#000000" fill-opacity="1"><g transform="translate(31.171365, 47.38103)"><g><path d="M 16.960938 -8.859375 C 16.457031 -9.082031 16.359375 -9.050781 16.042969 -8.417969 C 15.347656 -7.058594 14.714844 -5.664062 14.019531 -4.335938 C 13.195312 -2.722656 12.40625 -1.109375 11.359375 0.347656 C 11.203125 0.601562 11.074219 0.917969 10.726562 1.011719 C 10.539062 0.632812 10.539062 0.285156 10.539062 -0.09375 C 10.507812 -1.328125 10.539062 -2.59375 10.632812 -3.828125 C 10.824219 -7.214844 11.011719 -10.570312 11.042969 -13.957031 C 11.042969 -14.335938 11.042969 -14.714844 10.949219 -15.09375 C 10.886719 -15.285156 10.824219 -15.476562 10.601562 -15.476562 C 9.714844 -15.476562 8.828125 -15.570312 7.976562 -15.285156 C 7.691406 -15.191406 7.5 -15.160156 7.214844 -15.222656 C 6.519531 -15.378906 5.824219 -15.507812 5.09375 -15.347656 C 2.878906 -14.9375 1.519531 -13.511719 0.664062 -11.550781 C -0.0625 -9.90625 -0.285156 -8.164062 -0.160156 -6.390625 C -0.125 -5.539062 0.03125 -4.683594 0.378906 -3.859375 C 0.695312 -3.039062 1.328125 -2.691406 2.183594 -2.691406 C 2.878906 -2.660156 3.480469 -2.910156 3.957031 -3.417969 C 4.398438 -3.925781 4.808594 -4.492188 5.160156 -5.09375 C 5.507812 -5.695312 5.855469 -6.296875 6.234375 -6.929688 C 6.457031 -6.742188 6.359375 -6.550781 6.390625 -6.390625 C 6.457031 -5.160156 6.488281 -3.890625 6.710938 -2.660156 C 6.898438 -1.296875 7.152344 0.0625 7.816406 1.296875 C 8.703125 2.941406 11.011719 3.226562 12.277344 1.835938 C 12.753906 1.328125 13.132812 0.757812 13.449219 0.125 C 14.808594 -2.5 16.109375 -5.191406 17.308594 -7.910156 C 17.59375 -8.542969 17.5625 -8.609375 16.960938 -8.859375 Z M 7.214844 -12.976562 C 7.183594 -12.625 7.121094 -12.246094 6.960938 -11.929688 C 5.886719 -9.398438 4.714844 -6.929688 3.292969 -4.589844 C 3.070312 -4.242188 2.910156 -3.703125 2.40625 -3.828125 C 1.898438 -3.957031 2.152344 -4.527344 2.089844 -4.90625 C 2.089844 -5.0625 2.089844 -5.253906 2.089844 -5.441406 C 2.152344 -7.722656 2.59375 -9.9375 3.828125 -11.929688 C 4.175781 -12.46875 4.558594 -13.007812 5.03125 -13.480469 C 5.285156 -13.734375 5.570312 -13.925781 5.949219 -14.019531 C 6.773438 -14.242188 7.308594 -13.828125 7.214844 -12.976562 Z M 7.214844 -12.976562 "/></g></g></g><g fill="#000000" fill-opacity="1"><g transform="translate(47.469181, 47.38103)"><g><path d="M 10.855469 -4.335938 C 10.886719 -4.714844 10.886719 -5.125 10.917969 -5.507812 C 11.234375 -7.910156 11.328125 -10.378906 11.203125 -12.816406 C 11.171875 -13.671875 11.109375 -14.558594 10.917969 -15.378906 C 10.855469 -15.792969 10.664062 -15.980469 10.253906 -15.917969 C 9.621094 -15.824219 8.957031 -15.761719 8.292969 -15.664062 C 8.132812 -15.632812 7.910156 -15.601562 7.847656 -15.441406 C 7.660156 -15.03125 7.375 -15.160156 7.089844 -15.253906 C 6.457031 -15.441406 5.792969 -15.410156 5.160156 -15.253906 C 3.257812 -14.808594 1.992188 -13.640625 1.074219 -12.027344 C -0.160156 -9.84375 -0.695312 -7.46875 -0.507812 -4.96875 C -0.441406 -4.273438 -0.285156 -3.609375 0.03125 -2.976562 C 0.222656 -2.53125 0.507812 -2.152344 1.011719 -1.992188 C 2.246094 -1.644531 3.511719 -1.707031 4.242188 -2.941406 C 4.398438 -3.257812 4.621094 -3.542969 4.777344 -3.859375 C 5.253906 -4.875 5.726562 -5.855469 6.234375 -6.867188 C 6.296875 -7.027344 6.328125 -7.277344 6.613281 -7.246094 C 6.613281 -6.960938 6.644531 -6.710938 6.613281 -6.457031 C 6.519531 -5.160156 6.359375 -3.890625 6.265625 -2.625 C 6.203125 -1.835938 5.917969 -1.390625 5.160156 -1.140625 C 3.957031 -0.726562 2.816406 -0.160156 1.804688 0.570312 C 0.886719 1.234375 0.125 1.992188 -0.222656 3.132812 C -0.792969 5 0.285156 6.582031 2.246094 6.773438 C 4.175781 6.929688 5.824219 6.296875 7.121094 4.875 C 7.753906 4.207031 8.292969 3.449219 8.734375 2.625 C 9.492188 1.171875 10 -0.347656 10.347656 -1.929688 C 10.441406 -2.375 10.664062 -2.722656 11.042969 -3.007812 C 12.152344 -3.859375 13.195312 -4.808594 14.175781 -5.824219 C 14.652344 -6.359375 15.09375 -6.929688 15.570312 -7.46875 C 15.855469 -7.816406 15.664062 -8.039062 15.378906 -8.292969 C 15.0625 -8.574219 14.90625 -8.257812 14.746094 -8.070312 C 14.621094 -7.941406 14.527344 -7.785156 14.429688 -7.660156 C 13.417969 -6.359375 12.277344 -5.285156 11.042969 -4.242188 C 10.980469 -4.273438 10.917969 -4.304688 10.855469 -4.335938 Z M 7.089844 -12.246094 C 6.519531 -10.570312 5.792969 -8.988281 5.03125 -7.40625 C 4.492188 -6.265625 3.957031 -5.125 3.386719 -4.019531 C 3.226562 -3.703125 3.101562 -3.226562 2.691406 -3.324219 C 2.214844 -3.417969 2.308594 -3.925781 2.277344 -4.273438 C 2.183594 -5.410156 2.46875 -6.488281 2.660156 -7.5625 C 3.039062 -9.527344 3.542969 -11.457031 4.714844 -13.132812 C 5.0625 -13.609375 5.378906 -14.050781 5.917969 -14.304688 C 6.710938 -14.683594 7.375 -14.273438 7.34375 -13.257812 C 7.34375 -12.976562 7.214844 -12.625 7.089844 -12.246094 Z M 4.113281 4.90625 C 4.082031 4.9375 4.050781 4.9375 4.050781 4.96875 C 3.671875 5.441406 3.292969 5.949219 2.59375 5.792969 C 1.867188 5.664062 1.519531 5.09375 1.328125 4.429688 C 1.140625 3.859375 1.265625 3.324219 1.519531 2.785156 C 1.742188 2.246094 2.121094 1.773438 2.5625 1.359375 C 3.480469 0.539062 4.558594 0 5.886719 -0.507812 C 5.539062 1.550781 5.125 3.324219 4.113281 4.90625 Z M 4.113281 4.90625 "/></g></g></g><g fill="#000000" fill-opacity="1"><g transform="translate(61.994789, 47.38103)"><g><path d="M 9.304688 -9.242188 C 8.765625 -9.429688 8.703125 -9.429688 8.386719 -8.859375 C 8.355469 -8.765625 8.292969 -8.640625 8.226562 -8.542969 C 7.183594 -6.488281 6.140625 -4.460938 5.09375 -2.40625 C 4.90625 -2.023438 4.714844 -1.675781 4.492188 -1.328125 C 4.175781 -0.855469 3.890625 -0.886719 3.609375 -1.359375 C 3.355469 -1.835938 3.195312 -2.375 3.101562 -2.878906 C 2.878906 -4.242188 2.878906 -5.632812 2.816406 -6.992188 C 2.722656 -9.492188 2.976562 -11.992188 3.164062 -14.492188 C 3.257812 -15.726562 3.226562 -15.761719 1.929688 -15.792969 C 1.867188 -15.792969 1.773438 -15.792969 1.675781 -15.792969 C 1.359375 -15.824219 1.171875 -15.695312 1.074219 -15.378906 C 0.980469 -15.125 0.855469 -14.90625 0.792969 -14.621094 C 0.191406 -12.277344 -0.191406 -9.90625 -0.191406 -7.308594 C -0.222656 -6.109375 -0.125 -4.746094 0.191406 -3.386719 C 0.410156 -2.53125 0.695312 -1.742188 1.234375 -1.042969 C 2.5625 0.664062 5.316406 0.507812 6.390625 -1.359375 C 6.675781 -1.867188 6.929688 -2.4375 7.152344 -2.976562 C 7.941406 -4.777344 8.734375 -6.582031 9.527344 -8.386719 C 9.652344 -8.734375 9.808594 -9.050781 9.304688 -9.242188 Z M 2.625 -17.46875 C 3.480469 -17.5 3.988281 -17.976562 3.988281 -18.765625 C 3.988281 -19.527344 3.449219 -20 2.53125 -19.96875 C 1.835938 -19.96875 1.265625 -19.304688 1.296875 -18.542969 C 1.296875 -17.816406 1.742188 -17.46875 2.625 -17.46875 Z M 2.625 -17.46875 "/></g></g></g><g fill="#000000" fill-opacity="1"><g transform="translate(70.444321, 47.38103)"><g><path d="M 5.0625 -15.664062 C 5.222656 -15.949219 5.378906 -16.234375 5.632812 -16.457031 C 5.917969 -16.742188 6.203125 -16.742188 6.488281 -16.488281 C 6.867188 -16.140625 7.152344 -15.695312 7.375 -15.253906 C 7.59375 -14.683594 7.816406 -14.144531 8.039062 -13.578125 C 8.132812 -13.324219 8.257812 -13.164062 8.542969 -13.226562 C 8.796875 -13.257812 9.019531 -13.292969 9.242188 -13.355469 C 9.558594 -13.417969 9.714844 -13.609375 9.652344 -13.925781 C 9.558594 -15 9.273438 -16.042969 8.542969 -16.898438 C 7.722656 -17.847656 6.675781 -18.261719 5.441406 -18.039062 C 4.304688 -17.816406 3.386719 -17.246094 2.5625 -16.457031 C 1.359375 -15.253906 0.570312 -13.765625 0.191406 -12.121094 C -0.222656 -10.507812 -0.253906 -8.859375 -0.125 -7.214844 C 0 -5.347656 0.378906 -3.511719 1.265625 -1.804688 C 1.675781 -1.042969 2.152344 -0.316406 2.816406 0.253906 C 4.875 2.121094 7.976562 1.675781 9.398438 -0.695312 C 9.683594 -1.140625 9.90625 -1.582031 10.125 -2.058594 C 10.757812 -3.386719 11.394531 -4.746094 12.027344 -6.109375 C 12.46875 -7.089844 12.910156 -8.101562 13.355469 -9.113281 C 13.542969 -9.492188 13.480469 -9.746094 13.070312 -9.875 C 12.941406 -9.9375 12.816406 -10 12.660156 -10.0625 C 12.40625 -10.191406 12.214844 -10.160156 12.089844 -9.875 C 12.027344 -9.746094 11.960938 -9.621094 11.898438 -9.460938 C 10.824219 -7.121094 9.652344 -4.808594 8.449219 -2.5 C 8.039062 -1.675781 7.53125 -0.886719 6.898438 -0.222656 C 6.457031 0.285156 6.011719 0.253906 5.664062 -0.316406 C 5.253906 -0.949219 4.96875 -1.644531 4.714844 -2.34375 C 3.925781 -4.621094 3.671875 -6.992188 3.609375 -8.574219 C 3.609375 -12.089844 3.988281 -13.859375 5.0625 -15.664062 Z M 5.0625 -15.664062 "/></g></g></g><g fill="#000000" fill-opacity="1"><g transform="translate(103.699138, 47.38103)"><g><path d="M 9.304688 -9.242188 C 8.765625 -9.429688 8.703125 -9.429688 8.386719 -8.859375 C 8.355469 -8.765625 8.292969 -8.640625 8.226562 -8.542969 C 7.183594 -6.488281 6.140625 -4.460938 5.09375 -2.40625 C 4.90625 -2.023438 4.714844 -1.675781 4.492188 -1.328125 C 4.175781 -0.855469 3.890625 -0.886719 3.609375 -1.359375 C 3.355469 -1.835938 3.195312 -2.375 3.101562 -2.878906 C 2.878906 -4.242188 2.878906 -5.632812 2.816406 -6.992188 C 2.722656 -9.492188 2.976562 -11.992188 3.164062 -14.492188 C 3.257812 -15.726562 3.226562 -15.761719 1.929688 -15.792969 C 1.867188 -15.792969 1.773438 -15.792969 1.675781 -15.792969 C 1.359375 -15.824219 1.171875 -15.695312 1.074219 -15.378906 C 0.980469 -15.125 0.855469 -14.90625 0.792969 -14.621094 C 0.191406 -12.277344 -0.191406 -9.90625 -0.191406 -7.308594 C -0.222656 -6.109375 -0.125 -4.746094 0.191406 -3.386719 C 0.410156 -2.53125 0.695312 -1.742188 1.234375 -1.042969 C 2.5625 0.664062 5.316406 0.507812 6.390625 -1.359375 C 6.675781 -1.867188 6.929688 -2.4375 7.152344 -2.976562 C 7.941406 -4.777344 8.734375 -6.582031 9.527344 -8.386719 C 9.652344 -8.734375 9.808594 -9.050781 9.304688 -9.242188 Z M 2.625 -17.46875 C 3.480469 -17.5 3.988281 -17.976562 3.988281 -18.765625 C 3.988281 -19.527344 3.449219 -20 2.53125 -19.96875 C 1.835938 -19.96875 1.265625 -19.304688 1.296875 -18.542969 C 1.296875 -17.816406 1.742188 -17.46875 2.625 -17.46875 Z M 2.625 -17.46875 "/></g></g></g><g fill="#000000" fill-opacity="1"><g transform="translate(112.14867, 47.38103)"><g><path d="M 4.113281 -12.660156 C 4.144531 -13.703125 4.207031 -14.746094 4.242188 -15.792969 C 4.242188 -16.265625 4.207031 -16.742188 4.175781 -17.214844 C 4.144531 -17.59375 3.957031 -17.816406 3.542969 -17.753906 C 3.101562 -17.722656 2.625 -17.691406 2.183594 -17.660156 C 1.296875 -17.5625 1.296875 -17.5625 1.074219 -16.710938 C 1.011719 -16.519531 0.980469 -16.359375 0.949219 -16.171875 C 0.378906 -12.847656 -0.03125 -9.492188 -0.160156 -6.140625 C -0.285156 -2.214844 -0.03125 1.675781 0.410156 5.570312 C 0.476562 6.234375 0.632812 6.898438 0.792969 7.59375 C 0.855469 8.007812 1.109375 8.195312 1.550781 8.132812 C 2.023438 8.101562 2.5 8.070312 2.976562 8.039062 C 3.828125 7.976562 3.988281 7.847656 3.859375 7.027344 C 3.511719 4.273438 3.734375 1.550781 3.640625 -1.203125 C 3.609375 -1.804688 3.640625 -1.835938 4.273438 -1.773438 C 6.773438 -1.613281 8.671875 -2.660156 10.125 -4.589844 C 11.011719 -5.757812 11.710938 -7.027344 12.058594 -8.417969 C 12.246094 -9.113281 12.59375 -9.367188 13.257812 -9.492188 C 14.210938 -9.683594 15.160156 -9.96875 16.109375 -10.191406 C 16.394531 -10.253906 16.519531 -10.410156 16.488281 -10.695312 C 16.425781 -11.011719 16.265625 -11.171875 15.917969 -11.140625 C 15.855469 -11.140625 15.761719 -11.140625 15.664062 -11.109375 C 15 -10.980469 14.304688 -10.886719 13.640625 -10.757812 C 12.5625 -10.539062 12.5625 -10.539062 12.46875 -11.644531 C 12.375 -12.625 12.121094 -13.511719 11.582031 -14.335938 C 10.476562 -16.078125 8.480469 -16.519531 6.742188 -15.410156 C 6.042969 -14.96875 5.476562 -14.367188 4.96875 -13.671875 C 4.746094 -13.324219 4.492188 -13.007812 4.273438 -12.660156 C 4.207031 -12.660156 4.175781 -12.660156 4.113281 -12.660156 Z M 6.960938 -13.671875 C 7.152344 -13.988281 7.40625 -14.242188 7.691406 -14.460938 C 8.324219 -14.90625 8.859375 -14.84375 9.304688 -14.210938 C 9.429688 -14.019531 9.527344 -13.796875 9.621094 -13.578125 C 9.96875 -12.53125 9.9375 -11.457031 9.90625 -10.378906 C 9.90625 -10.0625 9.714844 -9.90625 9.429688 -9.84375 C 7.753906 -9.398438 6.140625 -8.796875 4.589844 -7.941406 C 5.0625 -10.03125 5.917969 -11.898438 6.960938 -13.671875 Z M 9.429688 -8.292969 C 8.890625 -6.550781 8.039062 -4.96875 6.675781 -3.671875 C 6.488281 -3.480469 6.265625 -3.324219 6.042969 -3.195312 C 5.410156 -2.878906 4.90625 -2.878906 4.460938 -3.292969 C 3.957031 -3.734375 3.796875 -4.273438 3.988281 -4.90625 C 4.113281 -5.253906 4.304688 -5.570312 4.527344 -5.824219 C 5.855469 -7.246094 7.5625 -7.976562 9.367188 -8.542969 C 9.398438 -8.417969 9.460938 -8.355469 9.429688 -8.292969 Z M 9.429688 -8.292969 "/></g></g></g><g fill="#000000" fill-opacity="1"><g transform="translate(127.085694, 47.38103)"><g><path d="M 3.101562 -13.828125 C 3.925781 -11.867188 4.746094 -9.90625 5.378906 -7.910156 C 5.726562 -6.804688 5.726562 -6.804688 4.652344 -6.296875 C 3.449219 -5.726562 2.34375 -5.0625 1.550781 -3.957031 C 0.222656 -2.023438 0.917969 0.316406 3.132812 1.074219 C 4.808594 1.644531 6.425781 1.488281 7.941406 0.507812 C 8.765625 -0.03125 9.335938 -0.792969 9.589844 -1.773438 C 9.808594 -2.660156 9.90625 -3.574219 9.746094 -4.527344 C 9.652344 -5 9.589844 -5.441406 9.492188 -5.917969 C 9.335938 -6.742188 9.335938 -6.742188 10.125 -7.058594 C 10.570312 -7.214844 11.011719 -7.40625 11.457031 -7.59375 C 12.246094 -8.007812 13.007812 -8.511719 13.703125 -9.050781 C 13.894531 -9.210938 14.113281 -9.367188 13.988281 -9.652344 C 13.828125 -9.9375 13.542969 -10 13.226562 -9.9375 C 12.941406 -9.875 12.722656 -9.714844 12.53125 -9.558594 C 11.644531 -8.957031 10.726562 -8.480469 9.746094 -8.101562 C 9.019531 -7.785156 8.988281 -7.785156 8.765625 -8.542969 C 7.847656 -11.328125 6.457031 -13.859375 4.9375 -16.328125 C 4.558594 -16.960938 4.050781 -17.5 3.449219 -17.945312 C 2.5625 -18.609375 1.929688 -18.355469 1.675781 -17.308594 C 1.488281 -16.550781 1.328125 -15.792969 1.171875 -15.03125 C 0.160156 -10.476562 -0.695312 -5.855469 -2.214844 -1.425781 C -2.4375 -0.855469 -2.59375 -0.285156 -2.785156 0.285156 C -2.941406 0.664062 -2.785156 0.792969 -2.40625 0.855469 C -1.707031 0.980469 -1.519531 0.917969 -1.203125 0.160156 C 0.253906 -3.449219 1.425781 -7.152344 2.152344 -10.949219 C 2.34375 -12.027344 2.46875 -13.101562 2.816406 -14.304688 C 2.976562 -14.050781 3.070312 -13.957031 3.101562 -13.828125 Z M 6.234375 -0.855469 C 5.824219 0.253906 4.875 0.507812 3.957031 -0.191406 C 3.070312 -0.855469 2.753906 -1.898438 3.164062 -2.976562 C 3.609375 -4.175781 4.558594 -4.875 5.632812 -5.441406 C 5.949219 -5.570312 6.109375 -5.441406 6.171875 -5.160156 C 6.359375 -4.335938 6.519531 -3.511719 6.519531 -2.59375 C 6.550781 -2.058594 6.457031 -1.425781 6.234375 -0.855469 Z M 6.234375 -0.855469 "/></g></g></g><g fill="#000000" fill-opacity="1"><g transform="translate(139.554315, 47.38103)"><g><path d="M 9.589844 -8.828125 C 9.589844 -8.796875 9.589844 -8.765625 9.589844 -8.765625 C 9.558594 -8.734375 9.558594 -8.734375 9.527344 -8.734375 C 9.558594 -7.878906 9.460938 -7.058594 9.398438 -6.234375 C 9.273438 -4.082031 9.242188 -1.929688 9.527344 0.222656 C 9.652344 1.011719 9.84375 1.804688 10.125 2.5625 C 10.476562 3.480469 11.140625 3.988281 12.152344 4.019531 C 13.164062 4.050781 13.957031 3.765625 14.429688 2.785156 C 14.621094 2.34375 14.808594 1.898438 14.96875 1.457031 C 15.917969 -1.140625 16.644531 -3.828125 17.4375 -6.488281 C 17.785156 -7.53125 17.753906 -7.53125 16.644531 -7.625 C 16.296875 -7.660156 16.078125 -7.53125 15.980469 -7.214844 C 15.855469 -6.835938 15.695312 -6.488281 15.570312 -6.109375 C 14.808594 -3.734375 14.019531 -1.359375 13.226562 1.011719 C 13.101562 1.390625 13.007812 1.804688 12.660156 2.183594 C 12.5 1.742188 12.4375 1.328125 12.4375 0.917969 C 12.40625 -0.03125 12.375 -0.980469 12.375 -1.960938 C 12.40625 -5.824219 12.878906 -9.683594 13.039062 -13.542969 C 13.070312 -14.082031 13.070312 -14.621094 13.007812 -15.160156 C 12.941406 -15.570312 12.722656 -15.726562 12.34375 -15.695312 C 11.929688 -15.664062 11.519531 -15.601562 11.109375 -15.632812 C 10.539062 -15.664062 10.285156 -15.410156 10.09375 -14.9375 C 9.429688 -13.257812 8.734375 -11.582031 8.070312 -9.875 C 7.214844 -7.816406 6.425781 -5.726562 5.285156 -3.796875 C 5.09375 -3.511719 4.96875 -3.195312 4.714844 -2.976562 C 4.367188 -2.625 4.082031 -2.660156 3.890625 -3.101562 C 3.640625 -3.671875 3.542969 -4.304688 3.480469 -4.9375 C 3.195312 -7.214844 3.355469 -9.492188 3.574219 -11.804688 C 3.703125 -13.324219 3.765625 -14.84375 3.828125 -16.359375 C 3.859375 -16.929688 3.796875 -16.992188 3.257812 -16.960938 C 2.53125 -16.929688 1.835938 -16.867188 1.109375 -16.804688 C 0.886719 -16.773438 0.726562 -16.644531 0.695312 -16.425781 C 0.664062 -16.171875 0.601562 -15.949219 0.570312 -15.695312 C 0.160156 -12.59375 0.09375 -9.460938 0.222656 -6.328125 C 0.253906 -5.160156 0.441406 -3.957031 0.949219 -2.847656 C 1.234375 -2.308594 1.550781 -1.835938 2.121094 -1.550781 C 3.542969 -0.855469 5.410156 -1.296875 6.425781 -2.5 C 6.898438 -3.101562 7.277344 -3.734375 7.5625 -4.429688 C 8.101562 -5.601562 8.609375 -6.773438 9.113281 -7.941406 C 9.242188 -8.195312 9.273438 -8.542969 9.527344 -8.703125 C 9.558594 -8.734375 9.558594 -8.796875 9.589844 -8.828125 Z M 9.589844 -8.828125 "/></g></g></g><g fill="#000000" fill-opacity="1"><g transform="translate(155.630608, 47.38103)"><g><path d="M 24.96875 -9.429688 C 24.621094 -9.589844 24.335938 -9.589844 24.144531 -9.175781 C 24.019531 -8.859375 23.859375 -8.511719 23.703125 -8.195312 C 22.878906 -6.519531 22.058594 -4.808594 21.042969 -3.226562 C 20.824219 -2.910156 20.601562 -2.59375 20.285156 -2.375 C 20 -2.152344 19.746094 -2.152344 19.492188 -2.4375 C 19.175781 -2.816406 19.019531 -3.257812 18.925781 -3.734375 C 18.734375 -5.0625 18.542969 -6.390625 18.511719 -7.722656 C 18.480469 -8.703125 18.355469 -9.683594 18.101562 -10.632812 C 17.5625 -12.5 16.042969 -13.070312 14.429688 -12.027344 C 14.144531 -11.835938 13.894531 -11.644531 13.671875 -11.425781 C 13.039062 -10.824219 12.5625 -10.160156 12.121094 -9.460938 C 11.960938 -9.242188 11.898438 -8.957031 11.582031 -8.828125 C 11.519531 -9.714844 11.457031 -10.570312 11.394531 -11.394531 C 11.296875 -12.53125 11.109375 -13.671875 10.664062 -14.714844 C 9.84375 -16.773438 7.910156 -17.4375 5.980469 -16.359375 C 5.0625 -15.855469 4.398438 -15.09375 3.796875 -14.273438 C 3.671875 -14.050781 3.574219 -13.765625 3.226562 -13.542969 C 3.226562 -13.828125 3.226562 -13.957031 3.226562 -14.113281 C 3.292969 -15.125 3.226562 -16.140625 3.164062 -17.152344 C 3.101562 -17.910156 3.101562 -17.945312 2.308594 -17.910156 C 1.867188 -17.878906 1.457031 -17.785156 1.042969 -17.816406 C 0.570312 -17.816406 0.347656 -17.59375 0.285156 -17.152344 C 0.253906 -16.992188 0.222656 -16.867188 0.222656 -16.710938 C -0.441406 -12.5625 -0.695312 -8.417969 -0.441406 -4.207031 C -0.410156 -3.132812 -0.316406 -2.023438 -0.09375 -0.917969 C 0 -0.316406 0.09375 -0.253906 0.726562 -0.222656 C 1.171875 -0.191406 1.613281 -0.191406 2.058594 -0.191406 C 2.691406 -0.222656 2.722656 -0.253906 2.785156 -0.855469 C 2.816406 -1.457031 2.910156 -2.058594 2.941406 -2.625 C 3.070312 -5.949219 4.050781 -9.082031 5.125 -12.183594 C 5.410156 -13.007812 5.792969 -13.796875 6.296875 -14.492188 C 6.488281 -14.777344 6.675781 -15.03125 6.960938 -15.222656 C 7.40625 -15.539062 7.785156 -15.476562 8.070312 -14.96875 C 8.355469 -14.460938 8.511719 -13.859375 8.640625 -13.292969 C 9.082031 -11.328125 9.175781 -9.335938 9.175781 -7.308594 C 9.210938 -5.476562 9.175781 -3.640625 9.175781 -1.773438 C 9.175781 -1.011719 9.210938 -0.980469 10 -0.917969 C 11.519531 -0.824219 11.265625 -0.726562 11.550781 -2.089844 C 11.960938 -4.144531 12.53125 -6.171875 13.386719 -8.132812 C 13.734375 -8.988281 14.210938 -9.714844 14.875 -10.347656 C 15.191406 -10.664062 15.378906 -10.601562 15.507812 -10.191406 C 15.664062 -9.777344 15.761719 -9.335938 15.792969 -8.890625 C 15.949219 -7.722656 16.078125 -6.582031 16.359375 -5.441406 C 16.582031 -4.429688 16.898438 -3.417969 17.40625 -2.5 C 18.261719 -0.949219 20.410156 -0.726562 21.425781 -1.960938 C 21.675781 -2.277344 21.992188 -2.59375 22.214844 -2.941406 C 23.511719 -4.714844 24.304688 -6.742188 25.128906 -8.765625 C 25.222656 -9.019531 25.316406 -9.304688 24.96875 -9.429688 Z M 24.96875 -9.429688 "/></g></g></g></svg>